PathFileType	4	(X/Y/Z)	C:\Users\°ÂÌØÂü\Desktop\20210112\bx_n_5_1801-Unnamed.trc
DataRate	CameraRate	NumFrames	NumMarkers	Units	OrigDataRate	OrigDataStartFrame	OrigNumFrames
50.00	50.00	       8	0	mm	50.00	1	       460
Frame#	Time	
		

1	0.000	-697.40527	282.59766	875.90515	-589.72839	-11.66642	809.95343				-696.42133	265.74869	745.86597	-716.36597	244.29021	642.32758	-675.58752	71.87874	575.00604	-711.70337	242.28473	576.94733	-654.96973	9.64879	519.26923	-654.53735	204.92642	535.45520	-752.19202	251.07010	503.96786	-717.31073	66.19364	217.75748	-649.57648	-70.24670	158.99744	-708.75098	154.01488	215.33496	-766.66748	227.51819	206.09676	-606.24841	-75.37991	156.45625	-882.63434	296.18286	144.60838	-674.63971	51.40029	161.85947	-600.38678	24.76908	170.37219	-549.98328	-27.89231	164.54503	-674.42218	172.06291	158.12300	-592.04279	219.16884	174.19118	-660.29114	298.83655	157.19817	-623.95514	306.73270	158.51001	-555.22461	255.98642	164.61017	-528.29700	304.66617	146.74078	-626.89929	112.77592	1849.94678	-697.90826	282.85751	1533.35547	-592.13837	102.39674	1352.77393	-517.65057	-72.80411	143.22420	-792.92804	37.52580	174.53204	-795.12433	178.21346	184.36122	-668.93134	-78.52718	1538.73999	-806.23956	84.68988	1059.44641	-753.53625	-41.92381	491.54254	-760.41315	-21.90759	208.02074	-875.85522	-78.73365	141.22168	-699.07068	-36.35511	618.79370							-666.78192	-77.32489	875.10791	-599.16858	-8.40401	1056.12183	-616.48059	239.38733	1068.47290	-593.13428	226.22302	801.80212	-665.49994	143.04726	578.73071	-684.55267	-64.26038	759.73993	-706.19684	-33.10625	570.81628	
2	0.020	-699.38074	282.07178	875.32941	-591.47852	-11.90866	810.97418				-697.02649	265.90146	745.65436	-715.80188	244.41829	642.08044	-674.24371	72.24890	575.37476	-711.25848	242.07555	576.54272	-653.94592	9.34221	519.27802	-653.62756	205.06607	535.28912	-751.13989	251.23186	504.18515	-717.12817	65.99362	217.75801	-649.55670	-70.34094	158.93622	-708.57050	153.98338	215.69539	-766.40826	227.89537	205.69753	-606.19537	-75.39685	156.31705	-882.62158	296.14899	144.58987	-674.52240	51.36226	162.38849	-600.57465	24.65668	170.82539	-550.18713	-27.91855	164.61333	-674.72626	172.18256	158.05783	-592.04083	219.39641	174.44913	-660.32104	298.83118	156.96017	-624.09052	306.84189	158.43106	-555.41913	256.00473	164.79034	-528.12360	304.36343	146.55630	-623.64612	112.55882	1849.93579	-696.89087	282.72269	1533.62585	-592.10919	102.50930	1352.59814	-517.59949	-72.95213	143.18965	-793.19733	37.26563	174.78406	-795.15778	178.14340	184.37416	-667.25238	-78.47910	1539.06641	-808.90192	84.62744	1060.23657	-753.21863	-41.58068	491.66208	-760.39429	-22.15981	207.85773	-875.86322	-78.52520	141.06013	-699.21674	-36.34726	618.94983							-668.52051	-77.42838	875.13275	-601.32605	-8.09035	1055.82617	-619.21295	238.97601	1068.27307	-594.33765	225.69109	802.40546	-664.22919	142.87057	579.01672	-685.59949	-64.12797	759.76074	-705.55188	-33.51804	570.98108	
3	0.040	-701.44849	281.82166	875.55817	-593.13568	-12.75926	811.43420				-697.18933	265.75974	745.35541	-714.87018	244.65544	641.79742	-672.40961	71.94424	575.25262	-709.67303	242.22385	576.56653	-652.52142	9.02803	518.65820	-651.96698	205.31554	535.31635	-749.96484	250.86926	503.86481	-716.99438	65.81615	217.74852	-649.99591	-70.57796	158.95213	-708.39233	154.08626	215.42613	-766.32172	228.06609	205.83919	-606.34802	-75.44312	156.30200	-882.50525	296.27322	144.78658	-674.45068	51.16299	162.77824	-600.60468	24.29570	171.21201	-550.47687	-28.35278	164.64034	-674.72626	172.18256	158.05783	-592.01501	219.58510	174.50908	-660.59204	299.09341	157.04729	-624.07758	306.91608	158.40001	-555.39172	255.97549	164.84673	-528.20917	304.69736	146.80655	-619.63000	111.98039	1849.60266	-695.53168	282.50534	1534.17346	-591.91998	102.44539	1352.29651	-517.61908	-72.95787	143.37656	-792.91693	37.31250	174.55264	-794.98193	178.25015	184.50398	-665.39801	-78.43784	1539.16418	-811.85278	84.84632	1060.89136	-752.40839	-41.54998	491.69415	-760.78619	-22.40704	207.96831	-875.85034	-78.68372	141.27127	-698.88525	-36.46253	618.69617							-671.87897	-77.60262	875.42224	-604.91394	-7.99451	1055.93811	-621.68311	238.69135	1068.01880	-596.05969	225.43889	803.47290	-662.65234	143.16081	579.19067	-687.39355	-63.97715	759.57965	-704.00238	-33.73155	570.57892	
4	0.060	-703.13574	281.50510	875.32129	-594.86737	-13.22293	812.80127				-697.34064	265.48813	745.16437	-714.02014	244.79956	641.70062	-669.79272	71.54649	574.53949	-708.19897	242.56825	576.38293	-650.95935	8.33632	518.43671	-650.18475	205.35474	534.94067	-748.40753	250.98384	503.79840	-716.64496	65.73083	217.75839	-650.17755	-70.58723	158.88390	-708.28040	154.38269	215.38745	-766.20679	228.06458	205.80119	-606.55688	-75.55250	156.38780	-882.68378	296.24774	144.66939	-674.49664	50.62162	163.31161	-600.88910	24.22310	171.54652	-550.99084	-28.56422	164.85120	-674.72626	172.18256	158.05783	-592.09827	219.57022	174.45123	-660.43402	298.92703	157.09349	-624.06885	307.18671	158.11655	-555.37329	256.08948	164.84543	-528.28876	304.75507	146.71515	-614.86316	111.97133	1849.12390	-693.45880	282.69769	1534.41406	-591.45087	102.10871	1351.48047	-517.63354	-72.87274	143.28812	-792.90125	37.27530	174.45244	-794.87286	178.12160	184.32391	-663.23511	-78.67567	1539.27771	-815.16956	84.89622	1061.41467	-752.00366	-41.59263	491.94351	-761.04169	-22.44787	208.29396	-875.94965	-78.65163	141.20186	-698.05591	-36.68064	618.64923							-674.54858	-77.80160	875.45728	-607.87335	-8.32753	1055.48047	-624.90552	238.55309	1068.25732	-597.24243	224.74809	804.18024	-661.12848	143.48622	578.95056	-688.26123	-64.87754	760.43030	-703.23572	-33.72844	570.67328	
5	0.080	-704.53345	282.16586	874.98212	-596.82629	-14.64954	813.59985				-697.54968	265.64899	745.01733	-712.49347	245.20505	641.05865	-667.17047	70.93228	574.41077	-706.16986	242.54684	575.68683	-648.88483	7.06837	518.06561	-648.47534	205.65512	534.85779	-746.65070	251.11356	503.66644	-716.47058	64.72757	217.30525	-650.08698	-70.58835	158.86078	-707.91376	154.35748	215.48651	-766.05304	228.01129	205.78926	-606.69183	-75.68740	156.07457	-882.53406	296.09598	144.57982	-674.53802	50.35252	163.69489	-601.20056	24.08945	171.55153	-551.09784	-28.66879	165.10307	-674.53967	172.21539	158.04715	-591.94110	219.66447	174.49747	-660.42944	298.99734	157.00148	-624.04779	307.17706	158.21152	-555.26086	256.31604	164.62595	-528.11536	304.45233	146.53067	-609.56244	111.14899	1848.53357	-691.24030	282.97754	1534.77625	-591.21625	102.22485	1351.19971	-517.62207	-72.77718	143.38007	-792.93756	37.15555	174.72014	-794.92517	178.26277	184.54735	-660.84100	-78.48788	1539.04700	-818.40289	84.70477	1062.21350	-750.38287	-41.10324	491.79865	-761.07159	-22.51906	208.53456	-875.85522	-78.73365	141.22168	-696.56268	-36.84825	618.12573							-678.38239	-77.86426	875.50507	-610.78253	-8.69722	1055.20544	-628.14496	237.14738	1067.52295	-598.81213	224.33693	805.38293	-659.46948	143.46716	578.55719	-690.07611	-64.38285	759.73065	-701.32581	-33.35952	569.48657	
6	0.100	-707.06262	282.51495	875.01135	-598.80109	-15.38612	814.41455				-698.00403	266.11938	744.64050	-711.56818	245.53236	640.55383	-663.11951	69.86591	574.66046	-704.45129	243.20294	575.81268	-646.30334	6.17718	517.39240	-646.65051	206.12769	534.69470	-744.96869	251.50269	503.80112	-715.51672	64.76477	217.34581	-650.13287	-70.97645	158.63864	-707.71155	154.53723	215.52681	-766.13208	228.24812	205.98799	-606.51093	-75.87943	156.25749	-882.53406	296.09598	144.57982	-674.51910	50.07645	163.80417	-601.13940	24.00828	171.80392	-551.37628	-28.79850	165.25398	-674.30310	172.51796	158.18742	-591.90741	219.71428	174.82286	-660.50739	299.01910	156.76689	-624.17126	307.45734	158.11974	-555.36572	256.17517	164.76343	-527.90308	304.54037	146.57845	-603.82544	111.32246	1847.41333	-688.89972	282.64014	1534.85950	-590.68152	102.19250	1350.14441	-517.67206	-72.90739	143.37231	-792.88330	37.13496	174.78827	-794.81989	178.24770	184.47699	-658.48895	-78.78448	1538.86206	-822.18451	85.09490	1062.51135	-748.66840	-41.30073	491.77515	-761.07135	-22.56364	208.38142	-875.87817	-78.62728	141.29668	-694.99213	-37.55437	617.66174							-681.74255	-78.59154	875.17072	-614.86090	-9.15708	1054.65503	-631.56055	236.83144	1067.26074	-600.08344	223.85086	806.41058	-657.26587	143.66237	579.11285	-691.46191	-64.47397	758.97662	-699.52222	-34.14943	569.67877	
7	0.120	-709.13080	282.13968	874.71655	-600.78455	-16.68246	815.03699				-698.32251	266.43253	744.24756	-710.12787	245.98169	639.98132	-660.09869	68.91800	574.14435	-702.78845	243.52019	575.25586	-643.86505	5.11633	516.87982	-644.80859	206.69272	534.30890	-743.84662	251.51712	503.52795	-715.20825	64.68723	217.59000	-650.09467	-71.04671	158.44635	-707.79504	154.74214	215.54422	-766.22699	228.19266	205.89445	-606.35864	-75.82284	156.01228	-882.53406	296.09598	144.57982	-674.23883	49.95953	163.89153	-601.19354	23.96007	171.77081	-551.09277	-28.82715	165.22217	-674.69952	172.68135	158.05965	-592.08105	219.72377	174.89723	-660.58832	298.92688	156.72891	-623.86761	307.40021	158.05385	-555.51776	256.28418	164.63095	-528.21619	304.63583	146.50752	-597.95715	110.83775	1845.95850	-686.19177	282.57526	1534.65137	-590.64996	102.28782	1348.48792	-517.63422	-72.98545	143.27325	-792.46802	36.97868	174.95709	-794.67041	178.46771	184.67776	-656.13446	-78.66967	1538.23804	-826.14600	85.14947	1062.91272	-746.57397	-41.89676	492.16000	-760.60095	-22.79791	208.32826	-875.85522	-78.73365	141.22168	-693.13892	-38.47948	617.16620							-685.51019	-79.05702	875.37054	-619.53424	-9.01501	1053.33203	-634.74573	236.46892	1067.28955	-601.66174	223.36858	806.94885	-655.24023	144.29591	578.97668	-692.82562	-64.93678	758.87531	-696.43640	-36.60728	570.02533	
8	0.140	-711.50549	282.19247	874.40710	-603.25238	-17.64688	816.07367				-698.36896	266.55597	744.03979	-708.93860	246.21169	639.41113	-657.15723	67.40213	573.42590	-700.49335	244.33492	575.40637	-641.40851	3.64785	516.28802	-642.81488	207.17558	533.94397	-741.94977	252.17535	503.06607	-715.13721	64.36183	217.18178	-649.94080	-71.17115	158.32352	-707.35303	154.93582	215.71918	-766.30890	228.44464	206.04326	-606.36853	-76.06710	156.08617	-882.65070	296.22977	144.79048	-674.56519	49.78134	163.96896	-601.15417	23.79789	171.89430	-551.58502	-28.82033	165.31366	-674.90027	172.53798	158.36174	-592.30341	219.77136	174.97914	-660.79327	299.07254	156.86235	-624.08832	307.58224	157.79567	-555.62378	256.29288	164.68810	-528.20477	304.51352	146.58266	-591.40564	110.71133	1844.19360	-683.04071	282.31366	1534.19128	-590.16962	101.57421	1346.69324	-517.67206	-72.90739	143.37231	-792.52948	36.88550	175.19283	-794.74481	178.47675	184.62302	-652.86121	-78.78234	1537.42883	-830.38446	85.00781	1063.30408	-744.11469	-42.90737	491.66156	-760.72900	-22.58224	208.32768	-875.85034	-78.68372	141.27127	-691.25861	-39.40925	616.74847							-688.93469	-79.93670	874.40735	-625.81525	-10.02937	1051.98474	-638.79846	235.91684	1065.92407	-603.62158	222.90063	807.70972	-653.87244	144.82990	578.40356	-694.34131	-65.61574	758.23041	-694.81372	-37.38795	568.87128	
